<svg version="1.1" id="Layer_1" xmlns="http://www.w3.org/2000/svg" xmlns:xlink="http://www.w3.org/1999/xlink" x="0px" y="0px"
	 width="100%" viewBox="0 0 512 512" enable-background="new 0 0 512 512" xml:space="preserve">
<path fill="#66CCFF" opacity="1.000000" stroke="none" 
	d="
M0.999999,268.000000 
	C1.000000,257.312439 1.000000,246.624878 1.305171,235.801956 
	C2.064948,235.023712 2.795959,234.434570 2.932964,233.729935 
	C5.219647,221.969238 11.523319,212.279678 19.664328,204.033569 
	C32.665543,190.864532 48.817566,184.248352 67.395256,184.058777 
	C71.761154,184.014221 76.134575,184.705688 81.000015,185.098557 
	C81.000015,182.872787 81.000015,181.084625 81.000015,179.296463 
	C81.000015,152.485764 81.127213,125.674194 80.942123,98.864769 
	C80.859322,86.871574 89.309044,80.971207 98.893509,80.984901 
	C127.702454,81.026070 156.511505,80.999756 185.320511,80.999771 
	C187.113510,80.999771 188.906509,80.999771 190.997894,80.999771 
	C190.997894,72.586891 190.385696,64.568329 191.134979,56.679073 
	C192.399841,43.361301 198.642166,31.984037 207.444550,22.170040 
	C215.648361,13.023424 225.997253,6.929822 237.669754,3.090816 
	C238.689438,2.755455 239.621887,2.154850 240.594849,1.677444 
	C240.396576,1.451625 240.198288,1.225809 240.000000,0.999996 
	C245.354935,1.000000 250.709854,1.000000 256.532410,1.468657 
	C257.013763,54.209473 257.027527,106.481628 256.597107,158.837677 
	C236.660324,159.479111 220.075348,166.903488 207.381119,181.527512 
	C190.942932,200.464676 190.967422,222.101166 199.551788,244.331848 
	C206.297073,261.799896 217.613937,276.407196 229.769730,290.397125 
	C231.679062,292.594543 233.621475,294.763245 236.049225,297.512024 
	C223.429230,307.696228 211.446396,317.461945 199.354004,327.090088 
	C191.669815,333.208344 189.884964,341.847412 195.095032,348.917603 
	C200.344040,356.040619 209.318542,357.105072 217.154221,351.226166 
	C223.938446,346.136139 230.536850,340.793213 237.122467,335.445190 
	C243.797745,330.024384 250.356674,324.460327 256.975372,319.430145 
	C256.989441,384.267517 256.994720,448.633759 257.000000,513.000000 
	C251.977905,513.000000 246.955811,513.000000 241.800156,512.694946 
	C241.023666,511.935181 240.440018,511.230316 239.729279,511.061890 
	C210.544556,504.148163 190.748627,477.118225 190.050430,448.592407 
	C189.927048,443.550720 190.465576,438.492828 190.718826,433.000183 
	C188.885376,433.000183 187.090164,433.000183 185.294968,433.000183 
	C156.647141,433.000183 127.998657,433.111084 99.351799,432.944214 
	C88.282394,432.879730 80.901901,427.220001 80.956856,414.550751 
	C81.089783,383.904816 81.000015,353.257874 81.000015,322.611359 
	C81.000015,320.816559 81.000015,319.021790 81.000015,318.000061 
	C74.784843,318.000061 69.057426,318.185394 63.345734,317.964417 
	C47.818718,317.363647 34.385746,311.503082 22.794243,301.284698 
	C13.250755,292.871765 7.050642,282.319122 3.056738,270.342651 
	C2.753787,269.434174 1.703108,268.775024 0.999999,268.000000 
z"/>
<path fill="#33BBFF" opacity="1.000000" stroke="none" 
	d="
M257.041321,158.753784 
	C257.027527,106.481628 257.013763,54.209473 257.000000,1.468657 
	C262.354919,1.000000 267.709869,1.000000 273.211914,1.301084 
	C274.911743,2.388034 276.389587,3.414959 278.028320,3.923857 
	C305.804413,12.549514 323.994568,39.167107 323.963531,66.969276 
	C323.958466,71.510292 323.468262,76.050766 323.178375,80.999435 
	C325.203186,80.999435 327.002869,80.999443 328.802551,80.999443 
	C357.116547,80.999443 385.432495,81.191826 413.743561,80.904099 
	C424.958344,80.790123 433.309845,87.342247 433.119568,100.102295 
	C432.724823,126.578323 433.000488,153.064346 433.000488,179.546265 
	C433.000488,181.315598 433.000458,183.084930 433.000458,184.992859 
	C435.130005,184.992859 436.692902,185.286285 438.102936,184.946014 
	C448.545624,182.425842 458.648102,184.435577 468.365662,187.884155 
	C490.196564,195.631500 504.554810,210.726151 511.060913,233.116776 
	C511.279449,233.868835 512.334778,234.377747 513.000000,235.000000 
	C513.000000,245.687561 513.000000,256.375122 512.704224,267.202209 
	C511.932800,268.143036 511.418152,268.924011 510.987457,269.748840 
	C507.035156,277.317200 503.929474,285.492706 498.989960,292.347626 
	C487.106628,308.838867 470.304474,316.964417 450.086487,317.958771 
	C444.556274,318.230743 439.001343,318.000061 433.000458,318.000061 
	C433.000458,319.111389 433.000488,320.910095 433.000488,322.708801 
	C433.000458,353.526215 433.060059,384.343964 432.909485,415.160614 
	C432.894165,418.292511 432.118896,421.647583 430.821350,424.501282 
	C427.675140,431.420593 421.141663,432.896606 414.456238,432.933350 
	C385.805237,433.090881 357.152863,433.000519 328.501007,433.000519 
	C326.718475,433.000519 324.935944,433.000519 323.005493,433.000519 
	C323.005493,441.400696 323.681854,449.299744 322.880341,457.045929 
	C320.344086,481.556824 299.406769,504.978821 275.382385,511.048920 
	C274.481445,511.276581 273.789398,512.330933 273.000000,513.000000 
	C267.977905,513.000000 262.955811,513.000000 257.466858,513.000000 
	C256.994720,448.633759 256.989441,384.267517 257.000916,319.292175 
	C257.017700,318.683105 256.920197,318.420074 257.240845,318.588074 
	C259.552399,320.521790 261.487000,322.356171 263.543518,324.041840 
	C274.861786,333.319000 286.002380,342.830536 297.613312,351.727417 
	C306.920715,358.859283 319.481171,353.891541 321.566803,342.625061 
	C322.785919,336.039276 319.808075,331.164124 314.721893,327.120392 
	C302.524323,317.422729 290.460510,307.556763 277.993256,297.476196 
	C280.705688,294.410645 282.809875,292.100647 284.839905,289.727264 
	C297.974365,274.371033 310.112549,258.364929 316.443817,238.814163 
	C329.825104,197.493317 300.048309,157.626144 257.036743,159.019806 
	C257.087280,158.938919 257.041321,158.753784 257.041321,158.753784 
z"/>
<path fill="#000000" opacity="1.000000" stroke="none" 
	d="
M273.468658,513.000000 
	C273.789398,512.330933 274.481445,511.276581 275.382385,511.048920 
	C299.406769,504.978821 320.344086,481.556824 322.880341,457.045929 
	C323.681854,449.299744 323.005493,441.400696 323.005493,433.000519 
	C324.935944,433.000519 326.718475,433.000519 328.501007,433.000519 
	C357.152863,433.000519 385.805237,433.090881 414.456238,432.933350 
	C421.141663,432.896606 427.675140,431.420593 430.821350,424.501282 
	C432.118896,421.647583 432.894165,418.292511 432.909485,415.160614 
	C433.060059,384.343964 433.000458,353.526215 433.000488,322.708801 
	C433.000488,320.910095 433.000458,319.111389 433.000458,318.000061 
	C439.001343,318.000061 444.556274,318.230743 450.086487,317.958771 
	C470.304474,316.964417 487.106628,308.838867 498.989960,292.347626 
	C503.929474,285.492706 507.035156,277.317200 510.987457,269.748840 
	C511.418152,268.924011 511.932800,268.143036 512.704224,267.670837 
	C513.000000,349.592957 513.000000,431.185913 513.000000,513.000000 
	C433.312561,513.000000 353.624939,513.000000 273.468658,513.000000 
z"/>
<path fill="#000000" opacity="1.000000" stroke="none" 
	d="
M0.999999,268.468658 
	C1.703108,268.775024 2.753787,269.434174 3.056738,270.342651 
	C7.050642,282.319122 13.250755,292.871765 22.794243,301.284698 
	C34.385746,311.503082 47.818718,317.363647 63.345734,317.964417 
	C69.057426,318.185394 74.784843,318.000061 81.000015,318.000061 
	C81.000015,319.021790 81.000015,320.816559 81.000015,322.611359 
	C81.000015,353.257874 81.089783,383.904816 80.956856,414.550751 
	C80.901901,427.220001 88.282394,432.879730 99.351799,432.944214 
	C127.998657,433.111084 156.647141,433.000183 185.294968,433.000183 
	C187.090164,433.000183 188.885376,433.000183 190.718826,433.000183 
	C190.465576,438.492828 189.927048,443.550720 190.050430,448.592407 
	C190.748627,477.118225 210.544556,504.148163 239.729279,511.061890 
	C240.440018,511.230316 241.023666,511.935181 241.333298,512.694946 
	C161.072205,513.000000 81.144417,513.000000 1.000000,513.000000 
	C1.000000,431.645905 1.000000,350.291595 0.999999,268.468658 
z"/>
<path fill="#000000" opacity="1.000000" stroke="none" 
	d="
M513.000000,234.531342 
	C512.334778,234.377747 511.279449,233.868835 511.060913,233.116776 
	C504.554810,210.726151 490.196564,195.631500 468.365662,187.884155 
	C458.648102,184.435577 448.545624,182.425842 438.102936,184.946014 
	C436.692902,185.286285 435.130005,184.992859 433.000458,184.992859 
	C433.000458,183.084930 433.000488,181.315598 433.000488,179.546265 
	C433.000488,153.064346 432.724823,126.578323 433.119568,100.102295 
	C433.309845,87.342247 424.958344,80.790123 413.743561,80.904099 
	C385.432495,81.191826 357.116547,80.999443 328.802551,80.999443 
	C327.002869,80.999443 325.203186,80.999435 323.178375,80.999435 
	C323.468262,76.050766 323.958466,71.510292 323.963531,66.969276 
	C323.994568,39.167107 305.804413,12.549514 278.028320,3.923857 
	C276.389587,3.414959 274.911743,2.388034 273.679504,1.301084 
	C353.592926,1.000000 433.185883,1.000000 513.000000,1.000000 
	C513.000000,78.687424 513.000000,156.375046 513.000000,234.531342 
z"/>
<path fill="#000000" opacity="1.000000" stroke="none" 
	d="
M239.531342,0.999996 
	C240.198288,1.225809 240.396576,1.451625 240.594849,1.677444 
	C239.621887,2.154850 238.689438,2.755455 237.669754,3.090816 
	C225.997253,6.929822 215.648361,13.023424 207.444550,22.170040 
	C198.642166,31.984037 192.399841,43.361301 191.134979,56.679073 
	C190.385696,64.568329 190.997894,72.586891 190.997894,80.999771 
	C188.906509,80.999771 187.113510,80.999771 185.320511,80.999771 
	C156.511505,80.999756 127.702454,81.026070 98.893509,80.984901 
	C89.309044,80.971207 80.859322,86.871574 80.942123,98.864769 
	C81.127213,125.674194 81.000015,152.485764 81.000015,179.296463 
	C81.000015,181.084625 81.000015,182.872787 81.000015,185.098557 
	C76.134575,184.705688 71.761154,184.014221 67.395256,184.058777 
	C48.817566,184.248352 32.665543,190.864532 19.664328,204.033569 
	C11.523319,212.279678 5.219647,221.969238 2.932964,233.729935 
	C2.795959,234.434570 2.064948,235.023712 1.305171,235.333298 
	C1.000000,157.072189 1.000000,79.144363 1.000000,1.000000 
	C80.354095,1.000000 159.708389,1.000000 239.531342,0.999996 
z"/>
<path fill="#FEDB02" opacity="1.000000" stroke="none" 
	d="
M256.992126,318.821045 
	C250.356674,324.460327 243.797745,330.024384 237.122467,335.445190 
	C230.536850,340.793213 223.938446,346.136139 217.154221,351.226166 
	C209.318542,357.105072 200.344040,356.040619 195.095032,348.917603 
	C189.884964,341.847412 191.669815,333.208344 199.354004,327.090088 
	C211.446396,317.461945 223.429230,307.696228 236.049225,297.512024 
	C233.621475,294.763245 231.679062,292.594543 229.769730,290.397125 
	C217.613937,276.407196 206.297073,261.799896 199.551788,244.331848 
	C190.967422,222.101166 190.942932,200.464676 207.381119,181.527512 
	C220.075348,166.903488 236.660324,159.479111 256.597107,158.837677 
	C257.041321,158.753784 257.087280,158.938919 257.038391,159.481964 
	C257.000061,169.623825 257.010651,179.222626 256.602417,188.903076 
	C255.352371,189.024445 254.515961,189.018097 253.690674,189.110733 
	C238.797287,190.782593 226.378662,200.670181 224.409073,212.892166 
	C222.950912,221.940567 225.617111,230.376389 229.624466,238.374451 
	C236.617355,252.331192 246.160324,264.441772 257.015015,275.999023 
	C256.979279,290.428131 256.949738,304.424103 256.920197,318.420074 
	C256.920197,318.420074 257.017700,318.683105 256.992126,318.821045 
z"/>
<path fill="#FDB702" opacity="1.000000" stroke="none" 
	d="
M257.021271,188.821426 
	C257.010651,179.222626 257.000061,169.623825 256.987854,159.562866 
	C300.048309,157.626144 329.825104,197.493317 316.443817,238.814163 
	C310.112549,258.364929 297.974365,274.371033 284.839905,289.727264 
	C282.809875,292.100647 280.705688,294.410645 277.993256,297.476196 
	C290.460510,307.556763 302.524323,317.422729 314.721893,327.120392 
	C319.808075,331.164124 322.785919,336.039276 321.566803,342.625061 
	C319.481171,353.891541 306.920715,358.859283 297.613312,351.727417 
	C286.002380,342.830536 274.861786,333.319000 263.543518,324.041840 
	C261.487000,322.356171 259.552399,320.521790 257.240845,318.588074 
	C256.949738,304.424103 256.979279,290.428131 257.053528,275.868744 
	C257.098206,275.305328 257.033630,275.041443 257.375671,275.020111 
	C268.036102,263.874146 277.550354,252.156525 284.329895,238.462387 
	C288.297058,230.449051 291.030792,222.046097 289.596863,213.010071 
	C287.459778,199.543289 272.566711,188.842789 257.026917,189.083710 
	C257.072205,189.001694 257.021271,188.821426 257.021271,188.821426 
z"/>
<path fill="#67CCFD" opacity="1.000000" stroke="none" 
	d="
M257.059692,275.435608 
	C246.160324,264.441772 236.617355,252.331192 229.624466,238.374451 
	C225.617111,230.376389 222.950912,221.940567 224.409073,212.892166 
	C226.378662,200.670181 238.797287,190.782593 253.690674,189.110733 
	C254.515961,189.018097 255.352371,189.024445 256.602417,188.903076 
	C257.021271,188.821426 257.072205,189.001694 257.028351,189.541870 
	C257.000854,218.401840 257.017242,246.721649 257.033630,275.041443 
	C257.033630,275.041443 257.098206,275.305328 257.059692,275.435608 
z"/>
<path fill="#34BBFD" opacity="1.000000" stroke="none" 
	d="
M257.375671,275.020111 
	C257.017242,246.721649 257.000854,218.401840 256.983093,189.623871 
	C272.566711,188.842789 287.459778,199.543289 289.596863,213.010071 
	C291.030792,222.046097 288.297058,230.449051 284.329895,238.462387 
	C277.550354,252.156525 268.036102,263.874146 257.375671,275.020111 
z"/>
</svg>